:FULLY-SPECIFIED
:FORCE-ALL-JOINTS-BE-3DOF
:DEGREES
306
root 9.08271 15.4221 -23.8076 13.1401 59.6841 17.0488
lfemur -16.1934 18.6568 -18.0689
ltibia 52.529 0 0
lfoot -16.8668 -26.7087 0
ltoes 58.5368 0 0
rfemur -53.431 -19.6654 36.4052
rtibia 57.02 0 0
rfoot 16.226 14.2938 0
rtoes 6.31434 0 0
lowerback 9.4949 -3.31367 -8.54893
upperback 5.07821 -4.93151 -4.0875
thorax 0.375878 -2.49844 0.944694
lowerneck -5.40068 -10.5036 -2.59731
upperneck -2.15855 -13.9221 10.5708
head 1.26225 -6.84152 3.36727
lclavicle -3.9641e-14 -6.49363e-15 0
lhumerus -42.1381 -41.9299 99.0289
lradius 59.3526 0 0
lwrist 21.5191 0 0
lhand 13.9322 11.7625 0
lfingers 7.12502 0 0
lthumb 38.845 37.3223 0
rclavicle -3.9641e-14 -6.49363e-15 0
rhumerus -39.9044 68.5176 -74.7883
rradius 80.8736 0 0
rwrist 5.40054 0 0
rhand 2.27968 -6.26351 0
rfingers 7.12502 0 0
rthumb 27.756 -754.062 0
307
root 9.03556 15.4426 -23.7909 12.3034 58.1706 15.8217
lfemur -16.3346 19.0629 -17.9456
ltibia 52.1156 0 0
lfoot -17.3099 -25.9107 0
ltoes 58.5917 0 0
rfemur -55.0266 -21.1301 37.4161
rtibia 57.7782 0 0
rfoot 17.2081 17.352 0
rtoes -0.30275 0 0
lowerback 9.73871 -3.19862 -8.51413
upperback 5.12525 -4.80127 -4.11015
thorax 0.275237 -2.43 0.909921
lowerneck -5.55651 -10.361 -2.27002
upperneck -2.6718 -13.7054 10.7194
head 1.09146 -6.74108 3.37883
lclavicle -3.33958e-14 -1.43125e-14 0
lhumerus -42.4065 -42.5304 99.1545
lradius 59.1219 0 0
lwrist 21.3914 0 0
lhand 13.5646 11.4558 0
lfingers 7.12502 0 0
lthumb 38.4988 37.1176 0
rclavicle -3.33958e-14 -1.43125e-14 0
rhumerus -33.9357 70.9667 -68.9449
rradius 81.2445 0 0
rwrist 3.93263 0 0
rhand 5.47149 -5.7173 0
rfingers 7.12502 0 0
rthumb 30.8196 -753.153 0
308
root 9.00008 15.4643 -23.7583 12.1423 56.8984 15.2458
lfemur -16.4627 19.4648 -17.9113
ltibia 51.6672 0 0
lfoot -18.1243 -24.6846 0
ltoes 57.9901 0 0
rfemur -56.109 -21.2727 37.0297
rtibia 58.3211 0 0
rfoot 15.5009 17.2275 0
rtoes -3.96924 0 0
lowerback 9.76658 -3.03398 -8.3198
upperback 5.07929 -4.57931 -4.10834
thorax 0.180862 -2.31454 0.79113
lowerneck -5.53736 -10.3715 -2.01922
upperneck -3.03272 -13.6991 10.7321
head 0.952968 -6.75321 3.354
lclavicle -3.45885e-14 -8.614e-15 0
lhumerus -42.9758 -43.4187 99.8552
lradius 59.0198 0 0
lwrist 20.9079 0 0
lhand 13.8089 11.2424 0
lfingers 7.12502 0 0
lthumb 38.729 36.8375 0
rclavicle -3.45885e-14 -8.614e-15 0
rhumerus -29.3256 66.9143 -65.6672
rradius 79.9722 0 0
rwrist 1.53018 0 0
rhand 6.83364 -5.95066 0
rfingers 7.12502 0 0
rthumb 32.112 -753.087 0
309
root 8.96459 15.4861 -23.7257 11.9812 55.6262 14.6699
lfemur -16.5908 19.8667 -17.877
ltibia 51.2188 0 0
lfoot -18.9388 -23.4584 0
ltoes 57.3885 0 0
rfemur -57.1913 -21.4153 36.6434
rtibia 58.864 0 0
rfoot 13.7936 17.103 0
rtoes -7.63573 0 0
lowerback 9.79446 -2.86934 -8.12547
upperback 5.03334 -4.35736 -4.10652
thorax 0.0864877 -2.19908 0.67234
lowerneck -5.5182 -10.382 -1.76842
upperneck -3.39363 -13.6929 10.7447
head 0.814476 -6.76534 3.32917
lclavicle -3.57812e-14 -2.9155e-15 0
lhumerus -43.5451 -44.307 100.556
lradius 58.9178 0 0
lwrist 20.4244 0 0
lhand 14.0532 11.0289 0
lfingers 7.12502 0 0
lthumb 38.9593 36.5574 0
rclavicle -3.57812e-14 -2.9155e-15 0
rhumerus -24.7154 62.8619 -62.3896
rradius 78.6998 0 0
rwrist -0.87228 0 0
rhand 8.19579 -6.18403 0
rfingers 7.12502 0 0
rthumb 33.4045 -753.021 0
310
root 8.92911 15.5078 -23.6931 11.8201 54.3539 14.094
lfemur -16.7189 20.2686 -17.8426
ltibia 50.7704 0 0
lfoot -19.7533 -22.2323 0
ltoes 56.7869 0 0
rfemur -58.2737 -21.5579 36.257
rtibia 59.4068 0 0
rfoot 12.0864 16.9785 0
rtoes -11.3022 0 0
lowerback 9.82233 -2.7047 -7.93114
upperback 4.98738 -4.1354 -4.10471
thorax -0.007887 -2.08361 0.553549
lowerneck -5.49905 -10.3925 -1.51763
upperneck -3.75455 -13.6867 10.7573
head 0.675984 -6.77747 3.30434
lclavicle -3.6974e-14 2.783e-15 0
lhumerus -44.1144 -45.1953 101.257
lradius 58.8157 0 0
lwrist 19.9409 0 0
lhand 14.2975 10.8155 0
lfingers 7.12502 0 0
lthumb 39.1895 36.2773 0
rclavicle -3.6974e-14 2.783e-15 0
rhumerus -20.1053 58.8094 -59.112
rradius 77.4275 0 0
rwrist -3.27474 0 0
rhand 9.55795 -6.41739 0
rfingers 7.12502 0 0
rthumb 34.6969 -752.956 0
311
root 8.89363 15.5295 -23.6606 11.6591 53.0817 13.5182
lfemur -16.8471 20.6705 -17.8083
ltibia 50.322 0 0
lfoot -20.5677 -21.0061 0
ltoes 56.1852 0 0
rfemur -59.356 -21.7006 35.8706
rtibia 59.9497 0 0
rfoot 10.3792 16.854 0
rtoes -14.9687 0 0
lowerback 9.8502 -2.54007 -7.73682
upperback 4.94142 -3.91345 -4.1029
thorax -0.102262 -1.96815 0.434758
lowerneck -5.4799 -10.4029 -1.26683
upperneck -4.11546 -13.6804 10.77
head 0.537491 -6.78961 3.27952
lclavicle -3.81667e-14 8.4815e-15 0
lhumerus -44.6836 -46.0835 101.957
lradius 58.7136 0 0
lwrist 19.4574 0 0
lhand 14.5418 10.602 0
lfingers 7.12502 0 0
lthumb 39.4197 35.9973 0
rclavicle -3.81667e-14 8.4815e-15 0
rhumerus -15.4951 54.757 -55.8343
rradius 76.1552 0 0
rwrist -5.67719 0 0
rhand 10.9201 -6.65075 0
rfingers 7.12502 0 0
rthumb 35.9893 -752.89 0
312
root 8.85814 15.5513 -23.628 11.498 51.8095 12.9423
lfemur -16.9752 21.0724 -17.774
ltibia 49.8736 0 0
lfoot -21.3822 -19.7799 0
ltoes 55.5836 0 0
rfemur -60.4383 -21.8432 35.4843
rtibia 60.4926 0 0
rfoot 8.67192 16.7295 0
rtoes -18.6352 0 0
lowerback 9.87808 -2.37543 -7.54249
upperback 4.89547 -3.69149 -4.10108
thorax -0.196636 -1.85269 0.315968
lowerneck -5.46074 -10.4134 -1.01603
upperneck -4.47637 -13.6741 10.7827
head 0.398999 -6.80174 3.25469
lclavicle -3.93594e-14 1.418e-14 0
lhumerus -45.2529 -46.9718 102.658
lradius 58.6116 0 0
lwrist 18.9739 0 0
lhand 14.7861 10.3886 0
lfingers 7.12502 0 0
lthumb 39.65 35.7172 0
rclavicle -3.93594e-14 1.418e-14 0
rhumerus -10.885 50.7046 -52.5567
rradius 74.8828 0 0
rwrist -8.07965 0 0
rhand 12.2822 -6.88412 0
rfingers 7.12502 0 0
rthumb 37.2818 -752.824 0
313
root 8.82266 15.573 -23.5954 11.3369 50.5373 12.3664
lfemur -17.1033 21.4743 -17.7397
ltibia 49.4252 0 0
lfoot -22.1966 -18.5538 0
ltoes 54.982 0 0
rfemur -61.5207 -21.9858 35.0979
rtibia 61.0355 0 0
rfoot 6.96469 16.605 0
rtoes -22.3017 0 0
lowerback 9.90595 -2.21079 -7.34816
upperback 4.84951 -3.46954 -4.09927
thorax -0.291011 -1.73723 0.197177
lowerneck -5.44159 -10.4239 -0.765233
upperneck -4.83729 -13.6679 10.7953
head 0.260507 -6.81387 3.22986
lclavicle -4.05521e-14 1.98785e-14 0
lhumerus -45.8222 -47.8601 103.359
lradius 58.5095 0 0
lwrist 18.4904 0 0
lhand 15.0304 10.1751 0
lfingers 7.12502 0 0
lthumb 39.8802 35.4371 0
rclavicle -4.05521e-14 1.98785e-14 0
rhumerus -6.27486 46.6522 -49.279
rradius 73.6105 0 0
rwrist -10.4821 0 0
rhand 13.6444 -7.11748 0
rfingers 7.12502 0 0
rthumb 38.5742 -752.758 0
314
root 8.79912 15.5926 -23.5366 11.1896 49.8588 12.0441
lfemur -16.6643 21.2645 -17.3897
ltibia 48.6508 0 0
lfoot -21.889 -18.4633 0
ltoes 55.7535 0 0
rfemur -61.0991 -21.2359 32.6894
rtibia 60.8423 0 0
rfoot 6.78642 14.4054 0
rtoes -19.3037 0 0
lowerback 9.87879 -1.99563 -7.0102
upperback 4.81518 -3.16005 -4.03453
thorax -0.33947 -1.57942 0.0484177
lowerneck -5.22666 -10.6499 -0.313099
upperneck -5.15377 -13.9561 10.5929
head 0.0862308 -6.98295 3.11388
lclavicle -2.77139e-14 1.6963e-14 0
lhumerus -46.624 -48.939 104.549
lradius 58.6569 0 0
lwrist 18.5248 0 0
lhand 15.0275 10.2447 0
lfingers 7.12502 0 0
lthumb 39.8775 35.5076 0
rclavicle -2.77139e-14 1.6963e-14 0
rhumerus -5.95647 40.2779 -51.0941
rradius 73.5697 0 0
rwrist -13.2264 0 0
rhand 6.50493 -10.1577 0
rfingers 7.12502 0 0
rthumb 31.7222 -756.519 0
315
root 8.77558 15.6121 -23.4778 11.0423 49.1803 11.7218
lfemur -16.2253 21.0548 -17.0398
ltibia 47.8764 0 0
lfoot -21.5815 -18.3728 0
ltoes 56.525 0 0
rfemur -60.6774 -20.486 30.2809
rtibia 60.6491 0 0
rfoot 6.60815 12.2058 0
rtoes -16.3057 0 0
lowerback 9.85162 -1.78048 -6.67224
upperback 4.78085 -2.85056 -3.96978
thorax -0.387929 -1.42162 -0.100342
lowerneck -5.01172 -10.8759 0.139035
upperneck -5.47026 -14.2443 10.3905
head -0.0880453 -7.15204 2.9979
lclavicle -1.48757e-14 1.40475e-14 0
lhumerus -47.4258 -50.0179 105.739
lradius 58.8044 0 0
lwrist 18.5591 0 0
lhand 15.0246 10.3144 0
lfingers 7.12502 0 0
lthumb 39.8748 35.5781 0
rclavicle -1.48757e-14 1.40475e-14 0
rhumerus -5.63809 33.9036 -52.9092
rradius 73.529 0 0
rwrist -15.9707 0 0
rhand -0.634533 -13.1979 0
rfingers 7.12502 0 0
rthumb 24.8703 -760.28 0
316
root 8.75205 15.6317 -23.4189 10.895 48.5018 11.3994
lfemur -15.7863 20.845 -16.6898
ltibia 47.102 0 0
lfoot -21.2739 -18.2822 0
ltoes 57.2965 0 0
rfemur -60.2558 -19.736 27.8724
rtibia 60.456 0 0
rfoot 6.42988 10.0062 0
rtoes -13.3077 0 0
lowerback 9.82446 -1.56532 -6.33428
upperback 4.74652 -2.54107 -3.90503
thorax -0.436387 -1.26381 -0.249101
lowerneck -4.79678 -11.1019 0.591168
upperneck -5.78674 -14.5325 10.1881
head -0.262321 -7.32112 2.88192
lclavicle -2.03755e-15 1.1132e-14 0
lhumerus -48.2276 -51.0968 106.928
lradius 58.9518 0 0
lwrist 18.5935 0 0
lhand 15.0217 10.3841 0
lfingers 7.12502 0 0
lthumb 39.8721 35.6486 0
rclavicle -2.03755e-15 1.1132e-14 0
rhumerus -5.3197 27.5293 -54.7243
rradius 73.4882 0 0
rwrist -18.7151 0 0
rhand -7.774 -16.2381 0
rfingers 7.12502 0 0
rthumb 18.0183 -764.041 0
317
root 8.72851 15.6513 -23.3601 10.7477 47.8232 11.0771
lfemur -15.3472 20.6352 -16.3399
ltibia 46.3277 0 0
lfoot -20.9663 -18.1917 0
ltoes 58.068 0 0
rfemur -59.8342 -18.9861 25.4638
rtibia 60.2628 0 0
rfoot 6.2516 7.8066 0
rtoes -10.3097 0 0
lowerback 9.79729 -1.35017 -5.99632
upperback 4.71219 -2.23158 -3.84029
thorax -0.484846 -1.106 -0.39786
lowerneck -4.58185 -11.328 1.0433
upperneck -6.10322 -14.8206 9.98563
head -0.436598 -7.4902 2.76593
lclavicle 1.08006e-14 8.21645e-15 0
lhumerus -49.0293 -52.1757 108.118
lradius 59.0992 0 0
lwrist 18.6279 0 0
lhand 15.0188 10.4537 0
lfingers 7.12502 0 0
lthumb 39.8693 35.719 0
rclavicle 1.08006e-14 8.21645e-15 0
rhumerus -5.00131 21.1549 -56.5394
rradius 73.4474 0 0
rwrist -21.4594 0 0
rhand -14.9135 -19.2783 0
rfingers 7.12502 0 0
rthumb 11.1664 -767.801 0
318
root 8.70497 15.6708 -23.3013 10.6004 47.1447 10.7548
lfemur -14.9082 20.4255 -15.99
ltibia 45.5533 0 0
lfoot -20.6588 -18.1012 0
ltoes 58.8395 0 0
rfemur -59.4125 -18.2362 23.0553
rtibia 60.0696 0 0
rfoot 6.07333 5.607 0
rtoes -7.31166 0 0
lowerback 9.77013 -1.13501 -5.65836
upperback 4.67786 -1.92209 -3.77554
thorax -0.533305 -0.948194 -0.54662
lowerneck -4.36692 -11.554 1.49544
upperneck -6.41971 -15.1088 9.78322
head -0.610874 -7.65929 2.64995
lclavicle 2.36388e-14 5.30093e-15 0
lhumerus -49.8311 -53.2546 109.308
lradius 59.2467 0 0
lwrist 18.6622 0 0
lhand 15.0159 10.5234 0
lfingers 7.12502 0 0
lthumb 39.8666 35.7895 0
rclavicle 2.36388e-14 5.30093e-15 0
rhumerus -4.68293 14.7806 -58.3545
rradius 73.4067 0 0
rwrist -24.2037 0 0
rhand -22.0529 -22.3185 0
rfingers 7.12502 0 0
rthumb 4.31439 -771.562 0
319
root 8.68143 15.6904 -23.2425 10.4531 46.4662 10.4325
lfemur -14.4692 20.2157 -15.64
ltibia 44.7789 0 0
lfoot -20.3512 -18.0107 0
ltoes 59.611 0 0
rfemur -58.9909 -17.4863 20.6468
rtibia 59.8764 0 0
rfoot 5.89506 3.4074 0
rtoes -4.31365 0 0
lowerback 9.74296 -0.919853 -5.3204
upperback 4.64353 -1.6126 -3.7108
thorax -0.581764 -0.790387 -0.695379
lowerneck -4.15198 -11.78 1.94757
upperneck -6.73619 -15.397 9.5808
head -0.78515 -7.82837 2.53397
lclavicle 3.6477e-14 2.38542e-15 0
lhumerus -50.6329 -54.3335 110.498
lradius 59.3941 0 0
lwrist 18.6966 0 0
lhand 15.013 10.593 0
lfingers 7.12502 0 0
lthumb 39.8639 35.86 0
rclavicle 3.6477e-14 2.38542e-15 0
rhumerus -4.36454 8.40632 -60.1696
rradius 73.3659 0 0
rwrist -26.948 0 0
rhand -29.1924 -25.3587 0
rfingers 7.12502 0 0
rthumb -2.53757 -775.323 0
